<mxfile host="Electron" agent="Mozilla/5.0 (Macintosh; Intel Mac OS X 10_15_7) AppleWebKit/537.36 (KHTML, like Gecko) draw.io/26.0.16 Chrome/132.0.6834.196 Electron/34.2.0 Safari/537.36" version="26.0.16">
  <diagram name="Page-1" id="u2ccS2FLRDQrBURU-6hl">
    <mxGraphModel dx="984" dy="718" grid="1" gridSize="10" guides="1" tooltips="1" connect="1" arrows="1" fold="1" page="1" pageScale="1" pageWidth="850" pageHeight="1100" math="0" shadow="0">
      <root>
        <mxCell id="0" />
        <mxCell id="1" parent="0" />
        <mxCell id="K2BhpS4jLEtGDlmopsUx-9" style="edgeStyle=orthogonalEdgeStyle;rounded=0;orthogonalLoop=1;jettySize=auto;html=1;" parent="1" source="K2BhpS4jLEtGDlmopsUx-1" target="K2BhpS4jLEtGDlmopsUx-2" edge="1">
          <mxGeometry relative="1" as="geometry" />
        </mxCell>
        <mxCell id="K2BhpS4jLEtGDlmopsUx-1" value="Data Ingest" style="rounded=1;whiteSpace=wrap;html=1;fillColor=#d5e8d4;strokeColor=#82b366;" parent="1" vertex="1">
          <mxGeometry x="80" y="120" width="120" height="60" as="geometry" />
        </mxCell>
        <mxCell id="K2BhpS4jLEtGDlmopsUx-10" style="edgeStyle=orthogonalEdgeStyle;rounded=0;orthogonalLoop=1;jettySize=auto;html=1;" parent="1" source="K2BhpS4jLEtGDlmopsUx-2" target="K2BhpS4jLEtGDlmopsUx-3" edge="1">
          <mxGeometry relative="1" as="geometry" />
        </mxCell>
        <mxCell id="K2BhpS4jLEtGDlmopsUx-2" value="Set up git repository" style="rounded=1;whiteSpace=wrap;html=1;fillColor=#fff2cc;strokeColor=#d6b656;" parent="1" vertex="1">
          <mxGeometry x="80" y="210" width="120" height="60" as="geometry" />
        </mxCell>
        <mxCell id="K2BhpS4jLEtGDlmopsUx-11" style="edgeStyle=orthogonalEdgeStyle;rounded=0;orthogonalLoop=1;jettySize=auto;html=1;entryX=0;entryY=0.5;entryDx=0;entryDy=0;" parent="1" source="K2BhpS4jLEtGDlmopsUx-3" target="K2BhpS4jLEtGDlmopsUx-4" edge="1">
          <mxGeometry relative="1" as="geometry" />
        </mxCell>
        <mxCell id="K2BhpS4jLEtGDlmopsUx-3" value="Data Pre-Processing" style="rounded=1;whiteSpace=wrap;html=1;fillColor=#e1d5e7;strokeColor=#9673a6;" parent="1" vertex="1">
          <mxGeometry x="80" y="300" width="120" height="60" as="geometry" />
        </mxCell>
        <mxCell id="K2BhpS4jLEtGDlmopsUx-12" style="edgeStyle=orthogonalEdgeStyle;rounded=0;orthogonalLoop=1;jettySize=auto;html=1;exitX=1;exitY=0.5;exitDx=0;exitDy=0;" parent="1" source="K2BhpS4jLEtGDlmopsUx-4" target="K2BhpS4jLEtGDlmopsUx-6" edge="1">
          <mxGeometry relative="1" as="geometry" />
        </mxCell>
        <mxCell id="K2BhpS4jLEtGDlmopsUx-4" value="EDA" style="ellipse;whiteSpace=wrap;html=1;fillColor=#e1d5e7;strokeColor=#9673a6;" parent="1" vertex="1">
          <mxGeometry x="220" y="305" width="70" height="50" as="geometry" />
        </mxCell>
        <mxCell id="K2BhpS4jLEtGDlmopsUx-34" style="edgeStyle=orthogonalEdgeStyle;rounded=0;orthogonalLoop=1;jettySize=auto;html=1;entryX=0;entryY=0.5;entryDx=0;entryDy=0;" parent="1" source="K2BhpS4jLEtGDlmopsUx-6" target="K2BhpS4jLEtGDlmopsUx-33" edge="1">
          <mxGeometry relative="1" as="geometry" />
        </mxCell>
        <mxCell id="K2BhpS4jLEtGDlmopsUx-6" value="Data Cleaning" style="ellipse;whiteSpace=wrap;html=1;fillColor=#e1d5e7;strokeColor=#9673a6;" parent="1" vertex="1">
          <mxGeometry x="310" y="305" width="70" height="50" as="geometry" />
        </mxCell>
        <mxCell id="K2BhpS4jLEtGDlmopsUx-44" style="edgeStyle=orthogonalEdgeStyle;rounded=0;orthogonalLoop=1;jettySize=auto;html=1;" parent="1" source="K2BhpS4jLEtGDlmopsUx-7" target="K2BhpS4jLEtGDlmopsUx-16" edge="1">
          <mxGeometry relative="1" as="geometry">
            <Array as="points">
              <mxPoint x="140" y="410" />
            </Array>
          </mxGeometry>
        </mxCell>
        <mxCell id="K2BhpS4jLEtGDlmopsUx-7" value="Modeling" style="ellipse;whiteSpace=wrap;html=1;fillColor=#e1d5e7;strokeColor=#9673a6;" parent="1" vertex="1">
          <mxGeometry x="160" y="385" width="70" height="50" as="geometry" />
        </mxCell>
        <mxCell id="K2BhpS4jLEtGDlmopsUx-43" style="edgeStyle=orthogonalEdgeStyle;rounded=0;orthogonalLoop=1;jettySize=auto;html=1;entryX=1;entryY=0.5;entryDx=0;entryDy=0;" parent="1" source="K2BhpS4jLEtGDlmopsUx-8" target="K2BhpS4jLEtGDlmopsUx-7" edge="1">
          <mxGeometry relative="1" as="geometry" />
        </mxCell>
        <mxCell id="K2BhpS4jLEtGDlmopsUx-8" value="Production Model" style="ellipse;whiteSpace=wrap;html=1;fillColor=#e1d5e7;strokeColor=#9673a6;" parent="1" vertex="1">
          <mxGeometry x="260" y="385" width="70" height="50" as="geometry" />
        </mxCell>
        <mxCell id="K2BhpS4jLEtGDlmopsUx-19" style="edgeStyle=orthogonalEdgeStyle;rounded=0;orthogonalLoop=1;jettySize=auto;html=1;entryX=0.5;entryY=0;entryDx=0;entryDy=0;" parent="1" source="K2BhpS4jLEtGDlmopsUx-16" target="K2BhpS4jLEtGDlmopsUx-18" edge="1">
          <mxGeometry relative="1" as="geometry" />
        </mxCell>
        <mxCell id="K2BhpS4jLEtGDlmopsUx-16" value="Final Model" style="rounded=1;whiteSpace=wrap;html=1;fillColor=#e1d5e7;strokeColor=#9673a6;" parent="1" vertex="1">
          <mxGeometry x="80" y="470" width="120" height="60" as="geometry" />
        </mxCell>
        <mxCell id="K2BhpS4jLEtGDlmopsUx-21" style="edgeStyle=orthogonalEdgeStyle;rounded=0;orthogonalLoop=1;jettySize=auto;html=1;" parent="1" source="K2BhpS4jLEtGDlmopsUx-18" target="K2BhpS4jLEtGDlmopsUx-20" edge="1">
          <mxGeometry relative="1" as="geometry" />
        </mxCell>
        <mxCell id="K2BhpS4jLEtGDlmopsUx-18" value="Streamlit App" style="rounded=1;whiteSpace=wrap;html=1;fillColor=#dae8fc;strokeColor=#6c8ebf;" parent="1" vertex="1">
          <mxGeometry x="80" y="555" width="120" height="60" as="geometry" />
        </mxCell>
        <mxCell id="K2BhpS4jLEtGDlmopsUx-31" style="edgeStyle=orthogonalEdgeStyle;rounded=0;orthogonalLoop=1;jettySize=auto;html=1;" parent="1" source="K2BhpS4jLEtGDlmopsUx-20" target="K2BhpS4jLEtGDlmopsUx-30" edge="1">
          <mxGeometry relative="1" as="geometry" />
        </mxCell>
        <mxCell id="K2BhpS4jLEtGDlmopsUx-32" style="edgeStyle=orthogonalEdgeStyle;rounded=0;orthogonalLoop=1;jettySize=auto;html=1;entryX=0;entryY=0.5;entryDx=0;entryDy=0;" parent="1" source="K2BhpS4jLEtGDlmopsUx-20" target="K2BhpS4jLEtGDlmopsUx-26" edge="1">
          <mxGeometry relative="1" as="geometry" />
        </mxCell>
        <mxCell id="K2BhpS4jLEtGDlmopsUx-20" value="Deploy with Docker" style="rounded=1;whiteSpace=wrap;html=1;fillColor=#dae8fc;strokeColor=#6c8ebf;" parent="1" vertex="1">
          <mxGeometry x="80" y="645" width="120" height="60" as="geometry" />
        </mxCell>
        <mxCell id="K2BhpS4jLEtGDlmopsUx-26" value="Accessable to users" style="ellipse;whiteSpace=wrap;html=1;fillColor=#dae8fc;strokeColor=#6c8ebf;" parent="1" vertex="1">
          <mxGeometry x="230" y="650" width="70" height="50" as="geometry" />
        </mxCell>
        <mxCell id="K2BhpS4jLEtGDlmopsUx-47" style="edgeStyle=orthogonalEdgeStyle;rounded=0;orthogonalLoop=1;jettySize=auto;html=1;" parent="1" source="K2BhpS4jLEtGDlmopsUx-30" target="K2BhpS4jLEtGDlmopsUx-46" edge="1">
          <mxGeometry relative="1" as="geometry" />
        </mxCell>
        <mxCell id="K2BhpS4jLEtGDlmopsUx-30" value="Model Monitoring Dashboard (MLFlow)" style="rounded=1;whiteSpace=wrap;html=1;fillColor=#dae8fc;strokeColor=#6c8ebf;" parent="1" vertex="1">
          <mxGeometry x="80" y="735" width="120" height="60" as="geometry" />
        </mxCell>
        <mxCell id="K2BhpS4jLEtGDlmopsUx-41" style="edgeStyle=orthogonalEdgeStyle;rounded=0;orthogonalLoop=1;jettySize=auto;html=1;" parent="1" source="K2BhpS4jLEtGDlmopsUx-33" target="K2BhpS4jLEtGDlmopsUx-36" edge="1">
          <mxGeometry relative="1" as="geometry" />
        </mxCell>
        <mxCell id="K2BhpS4jLEtGDlmopsUx-33" value="Feature Engineering" style="ellipse;whiteSpace=wrap;html=1;fillColor=#e1d5e7;strokeColor=#9673a6;" parent="1" vertex="1">
          <mxGeometry x="400" y="305" width="70" height="50" as="geometry" />
        </mxCell>
        <mxCell id="K2BhpS4jLEtGDlmopsUx-42" style="edgeStyle=orthogonalEdgeStyle;rounded=0;orthogonalLoop=1;jettySize=auto;html=1;" parent="1" source="K2BhpS4jLEtGDlmopsUx-36" target="K2BhpS4jLEtGDlmopsUx-8" edge="1">
          <mxGeometry relative="1" as="geometry" />
        </mxCell>
        <mxCell id="K2BhpS4jLEtGDlmopsUx-36" value="Model Training" style="rounded=1;whiteSpace=wrap;html=1;fillColor=#e1d5e7;strokeColor=#9673a6;" parent="1" vertex="1">
          <mxGeometry x="375" y="380" width="120" height="60" as="geometry" />
        </mxCell>
        <mxCell id="K2BhpS4jLEtGDlmopsUx-46" value="Final Documentation" style="rounded=1;whiteSpace=wrap;html=1;" parent="1" vertex="1">
          <mxGeometry x="80" y="820" width="120" height="60" as="geometry" />
        </mxCell>
        <mxCell id="K2BhpS4jLEtGDlmopsUx-48" value="&lt;h1 style=&quot;margin-top: 0px;&quot;&gt;Process Diagram&lt;/h1&gt;&lt;p&gt;Uta Nishii and Kyllan Wunder&lt;/p&gt;" style="text;html=1;whiteSpace=wrap;overflow=hidden;rounded=0;" parent="1" vertex="1">
          <mxGeometry x="245" y="10" width="325" height="120" as="geometry" />
        </mxCell>
      </root>
    </mxGraphModel>
  </diagram>
</mxfile>
